<svg width="141" height="37" viewBox="0 0 141 37" fill="none" xmlns="http://www.w3.org/2000/svg">
<path d="M8.46893 9.34649C10.9534 9.57973 13.448 9.82311 15.9325 10.0563C16.7438 9.35663 19.502 7.15605 23.5989 7.05464C24.6535 7.03436 27.6146 7.00394 30.3526 8.99155C34.3379 11.8817 34.632 16.6885 34.6523 17.1043C34.9261 23.1584 29.4907 27.6001 29.9774 27.9956C30.3121 28.2694 32.8878 26.15 34.6422 23.2497C35.7678 21.3837 36.2849 19.6395 36.5486 18.4125C36.5689 17.155 36.5486 10.7358 31.4884 5.57407C27.3915 1.38587 22.4429 0.55432 20.9015 0.351501C19.4818 0.513756 16.7539 1.01066 13.9551 2.88673C10.6188 5.11773 9.0571 8.04845 8.46893 9.34649Z" fill="#5BC4BF"/>
<path d="M12.0888 17.0838C11.9468 17.0331 12.4031 14.2849 13.7417 12.3379C14.624 11.0702 15.9321 9.95474 15.9321 9.95474C15.9524 9.9446 15.9625 9.92432 15.9727 9.92432C17.2504 10.2285 18.2848 10.5936 19.0453 10.8877C21.6819 11.9424 22.625 12.926 23.0103 13.3722C23.4565 13.8894 23.8115 14.4674 23.7202 14.5587C23.5377 14.7311 22.0166 12.5305 19.5016 12.0539C17.9298 11.7497 16.6115 12.2466 16.2262 12.4088C14.7051 13.0072 13.8634 14.0415 13.4679 14.5283C12.3829 15.877 12.18 17.1142 12.0888 17.0838Z" fill="#87236A"/>
<path d="M12.1399 17.0328C12.6368 16.9314 12.7991 22.2655 16.1354 23.8577C18.194 24.8413 21.0739 24.2329 22.8181 22.5089C24.9882 20.3591 25.2113 16.4142 22.9398 13.3416C24.2277 14.3861 26.1849 16.252 27.7262 19.1219C29.7138 22.8132 29.9775 26.2509 29.9978 28.0256C29.795 28.1473 29.5009 28.3095 29.1459 28.4819C24.684 30.6521 20.07 29.1715 19.7658 29.0701C18.7111 28.7152 15.0402 27.3157 13.083 23.594C11.4301 20.4605 11.7445 17.114 12.1399 17.0328Z" fill="#87236A"/>
<path d="M1.74561 11.5365C2.50616 11.0701 3.49995 10.563 4.69656 10.1472C6.16696 9.6402 7.48526 9.42724 8.49933 9.33597C9.06721 8.0785 10.4768 5.42158 13.448 3.24129C16.4801 1.02043 19.5223 0.503242 20.9014 0.351129C19.5629 0.138169 14.1072 -0.591976 8.72243 2.82551C4.02727 5.80694 2.25264 10.1371 1.74561 11.5365Z" fill="#1296B0"/>
<path d="M29.9875 28.0256C31.0319 27.3462 32.5733 26.1698 33.9423 24.3039C35.6561 21.9614 36.295 19.6594 36.5586 18.3411C36.5688 19.923 36.3863 23.1174 34.5609 26.5755C32.9485 29.6279 30.7886 31.4837 29.5413 32.4065C29.6832 30.9564 29.8353 29.4961 29.9875 28.0256Z" fill="#1296B0"/>
<path d="M8.49908 9.34609C8.78302 9.31567 9.10752 9.27511 9.47259 9.25483C9.64498 9.24468 10.0202 9.21426 10.5069 9.21426C10.7909 9.21426 11.3182 9.20412 11.9773 9.24468C12.6568 9.28525 13.1537 9.36637 13.5999 9.43736C14.2185 9.53877 15.0398 9.69088 15.9728 9.93427C15.6483 10.2081 11.2269 14.1326 12.0686 20.0143C12.6162 23.878 15.1818 26.8797 17.9908 28.2994C23.0916 30.8752 29.105 28.4617 29.105 28.4921C29.1557 28.6747 25.1096 30.6521 20.1204 29.9017C18.7311 29.6888 12.2106 28.5124 8.87429 22.3366C5.53799 16.1304 8.17458 10.056 8.49908 9.34609Z" fill="#BF2070"/>
<path d="M1.7352 11.5466L1.74535 11.5263C2.54646 11.0294 3.64166 10.4615 5.00052 10.0255C6.34924 9.5894 7.56612 9.40686 8.49907 9.33588C8.17457 10.0863 5.54812 16.4852 9.1278 22.661C9.27991 22.9247 12.1802 27.7416 17.9705 29.3844C22.8583 30.7636 27.2087 29.2729 27.2087 29.2932C27.2087 29.4149 22.8786 31.149 17.5446 30.3681C15.9221 30.1349 9.78694 29.1411 5.46699 23.6041C1.56281 18.6047 1.65408 13.1387 1.7352 11.577C1.72506 11.5669 1.7352 11.5669 1.7352 11.5466Z" fill="#F04E30"/>
<path d="M1.74541 11.5366C-1.19541 18.9191 1.03555 27.3665 7.16055 32.2544C13.5796 37.3756 22.8584 37.477 29.531 32.4167C29.6831 30.9564 29.8352 29.4961 29.9873 28.0257C28.4257 28.8775 25.6775 30.1248 22.0573 30.4392C20.4348 30.5812 15.5875 30.926 10.578 27.9446C9.19884 27.1231 5.14255 24.4561 3.013 19.1625C1.72512 15.9986 1.65414 13.1591 1.74541 11.5366Z" fill="#F7941D"/>
<path d="M18.4372 24.4967C22.0104 24.4967 24.907 21.6273 24.907 18.0876C24.907 14.548 22.0104 11.6786 18.4372 11.6786C14.864 11.6786 11.9674 14.548 11.9674 18.0876C11.9674 21.6273 14.864 24.4967 18.4372 24.4967Z" fill="#F1F2F2"/>
<path d="M31.2348 9.55897C34.1858 12.0739 34.8246 15.2987 34.997 16.2925C35.5953 19.6492 34.5508 22.2554 34.2466 22.9652C32.979 25.896 30.8495 27.4678 29.9774 28.0357C29.9571 26.4537 29.6934 20.6126 25.1808 15.5725C21.7634 11.7494 17.697 10.3905 15.9629 9.92404C16.7234 9.28516 17.9302 8.43333 19.5831 7.79445C20.3437 7.50036 22.0372 6.86149 24.258 6.92233C28.1622 7.02374 30.8089 9.1939 31.2348 9.55897Z" fill="#104573"/>
<path d="M47.0945 21.8903V26.9506H44.7216V13.3111H49.9441C51.4652 13.3111 52.6821 13.7066 53.5745 14.4976C54.4669 15.2886 54.9232 16.3432 54.9232 17.6514C54.9232 18.99 54.4871 20.0345 53.6049 20.7748C52.7226 21.5151 51.4956 21.8903 49.9238 21.8903H47.0945ZM47.0945 19.9838H49.9441C50.7858 19.9838 51.4348 19.781 51.8708 19.3855C52.317 18.99 52.5401 18.412 52.5401 17.6615C52.5401 16.9213 52.317 16.3331 51.8607 15.897C51.4145 15.461 50.7959 15.2277 50.0049 15.2176H47.0945V19.9838V19.9838Z" fill="black"/>
<path d="M61.2001 27.1434C59.7601 27.1434 58.5838 26.6871 57.6914 25.7845C56.7991 24.8719 56.3427 23.6651 56.3427 22.1541V21.8702C56.3427 20.8561 56.5354 19.9535 56.9309 19.1625C57.3162 18.3614 57.874 17.7428 58.5737 17.3068C59.2835 16.8606 60.0644 16.6375 60.9365 16.6375C62.3156 16.6375 63.3804 17.0735 64.1308 17.9558C64.8812 18.838 65.2564 20.0854 65.2564 21.6978V22.6206H58.6345C58.7055 23.4623 58.9793 24.1214 59.4762 24.6082C59.963 25.095 60.5815 25.3383 61.3218 25.3383C62.3663 25.3383 63.2181 24.9124 63.8671 24.0707L65.0942 25.2369C64.6885 25.8454 64.1511 26.3119 63.4716 26.6465C62.8024 26.971 62.0418 27.1434 61.2001 27.1434ZM60.9365 18.4527C60.3077 18.4527 59.8108 18.6758 59.4255 19.1118C59.0401 19.5479 58.7968 20.1563 58.6852 20.9372H63.0255V20.7648C62.9748 20.0042 62.7719 19.4262 62.417 19.0408C62.0519 18.6555 61.5652 18.4527 60.9365 18.4527Z" fill="black"/>
<path d="M66.707 21.789C66.707 20.7952 66.8997 19.9028 67.2952 19.1017C67.6907 18.3006 68.2383 17.6921 68.9583 17.2662C69.6681 16.8403 70.4895 16.6273 71.4123 16.6273C72.7813 16.6273 73.8867 17.0634 74.7385 17.9456C75.5903 18.8279 76.0466 19.9941 76.1176 21.4442L76.1278 21.9817C76.1278 22.9857 75.9351 23.8781 75.5498 24.6589C75.1644 25.4499 74.6168 26.0584 73.8968 26.4843C73.1768 26.9102 72.3554 27.1333 71.4225 27.1333C69.9926 27.1333 68.8467 26.6567 67.9848 25.7034C67.1228 24.7502 66.6969 23.4826 66.6969 21.9006V21.789H66.707ZM68.9786 21.9919C68.9786 23.0364 69.1915 23.8476 69.6276 24.446C70.0636 25.0443 70.6619 25.3282 71.4225 25.3282C72.183 25.3282 72.7915 25.024 73.2174 24.4257C73.6433 23.8274 73.8563 22.9451 73.8563 21.789C73.8563 20.7648 73.6332 19.9535 73.1971 19.3552C72.7611 18.7569 72.1627 18.4527 71.4022 18.4527C70.6619 18.4527 70.0738 18.7468 69.6276 19.3349C69.1814 19.9231 68.9786 20.8155 68.9786 21.9919Z" fill="black"/>
<path d="M87.0184 21.9919C87.0184 23.5637 86.6635 24.811 85.9536 25.744C85.2438 26.6769 84.2905 27.1434 83.0838 27.1434C81.9683 27.1434 81.0861 26.7784 80.4168 26.0482V30.855H78.1453V16.82H80.2444L80.3357 17.8544C81.005 17.0431 81.9075 16.6375 83.0635 16.6375C84.3007 16.6375 85.2742 17.0938 85.9739 18.0166C86.6736 18.9394 87.0285 20.2172 87.0285 21.8499V21.9919H87.0184ZM84.757 21.789C84.757 20.7749 84.5542 19.9738 84.1486 19.3856C83.7429 18.7975 83.1649 18.4932 82.4247 18.4932C81.4917 18.4932 80.8224 18.8786 80.4168 19.6493V24.1417C80.8326 24.9327 81.5018 25.3181 82.4449 25.3181C83.1649 25.3181 83.7328 25.024 84.1486 24.446C84.5542 23.8679 84.757 22.9755 84.757 21.789Z" fill="black"/>
<path d="M91.4705 26.9507H89.1888V12.5608H91.4604V26.9507H91.4705Z" fill="black"/>
<path d="M98.4979 27.1434C97.0579 27.1434 95.8816 26.6871 94.9892 25.7845C94.0968 24.8719 93.6405 23.6651 93.6405 22.1541V21.8702C93.6405 20.8561 93.8332 19.9535 94.2287 19.1625C94.614 18.3614 95.1718 17.7428 95.8715 17.3068C96.5813 16.8606 97.3621 16.6375 98.2343 16.6375C99.6134 16.6375 100.678 17.0735 101.429 17.9558C102.179 18.838 102.554 20.0854 102.554 21.6978V22.6206H95.9323C96.0033 23.4623 96.2771 24.1214 96.774 24.6082C97.2607 25.095 97.8793 25.3383 98.6196 25.3383C99.6641 25.3383 100.516 24.9124 101.165 24.0707L102.392 25.2369C101.986 25.8454 101.449 26.3119 100.769 26.6465C100.11 26.971 99.3497 27.1434 98.4979 27.1434ZM98.2343 18.4527C97.6055 18.4527 97.1086 18.6758 96.7233 19.1118C96.3379 19.5479 96.0946 20.1563 95.983 20.9372H100.323V20.7648C100.273 20.0042 100.07 19.4262 99.7148 19.0408C99.3599 18.6555 98.863 18.4527 98.2343 18.4527Z" fill="black"/>
<path d="M111.782 23.4423C111.782 22.844 111.569 22.3775 111.154 22.053C110.728 21.7285 109.967 21.4039 108.872 21.0693C107.777 20.7346 106.894 20.3696 106.245 19.9639C104.998 19.1831 104.38 18.169 104.38 16.9115C104.38 15.8163 104.826 14.9036 105.728 14.1938C106.621 13.4839 107.787 13.129 109.217 13.129C110.17 13.129 111.012 13.3014 111.752 13.6563C112.492 14.0011 113.08 14.5081 113.506 15.147C113.932 15.796 114.145 16.5059 114.145 17.2969H111.782C111.782 16.587 111.559 16.0293 111.113 15.6236C110.667 15.218 110.028 15.0152 109.196 15.0152C108.426 15.0152 107.817 15.1774 107.391 15.5121C106.965 15.8467 106.752 16.3031 106.752 16.9014C106.752 17.3983 106.986 17.8141 107.442 18.1487C107.909 18.4834 108.669 18.8079 109.724 19.1222C110.788 19.4366 111.64 19.8017 112.279 20.1972C112.918 20.6028 113.395 21.0592 113.689 21.5865C113.993 22.1037 114.135 22.7223 114.135 23.422C114.135 24.5578 113.699 25.4603 112.827 26.1296C111.955 26.7989 110.778 27.1336 109.278 27.1336C108.294 27.1336 107.381 26.951 106.56 26.5859C105.728 26.2209 105.089 25.7138 104.633 25.075C104.177 24.4361 103.943 23.6856 103.943 22.8237H106.316C106.316 23.5944 106.57 24.1927 107.087 24.6186C107.594 25.0445 108.334 25.2575 109.288 25.2575C110.109 25.2575 110.728 25.0952 111.143 24.7606C111.569 24.4361 111.782 23.9899 111.782 23.4423Z" fill="black"/>
<path d="M115.676 21.789C115.676 20.7952 115.869 19.9028 116.265 19.1017C116.66 18.3006 117.208 17.6921 117.928 17.2662C118.637 16.8403 119.459 16.6273 120.382 16.6273C121.751 16.6273 122.856 17.0634 123.708 17.9456C124.56 18.8279 125.016 19.9941 125.087 21.4442L125.097 21.9817C125.097 22.9857 124.904 23.8781 124.519 24.6589C124.134 25.4499 123.586 26.0584 122.866 26.4843C122.146 26.9102 121.325 27.1333 120.392 27.1333C118.962 27.1333 117.816 26.6567 116.954 25.7034C116.092 24.7502 115.666 23.4826 115.666 21.9006V21.789H115.676ZM117.958 21.9919C117.958 23.0364 118.171 23.8476 118.607 24.446C119.043 25.0443 119.641 25.3282 120.402 25.3282C121.162 25.3282 121.771 25.024 122.197 24.4257C122.623 23.8274 122.836 22.9451 122.836 21.789C122.836 20.7648 122.613 19.9535 122.177 19.3552C121.741 18.7569 121.142 18.4527 120.382 18.4527C119.641 18.4527 119.053 18.7468 118.607 19.3349C118.161 19.9231 117.958 20.8155 117.958 21.9919Z" fill="black"/>
<path d="M129.539 26.9507H127.267V12.5608H129.539V26.9507Z" fill="black"/>
<path d="M134.67 8.3929H133.118V12.6724H132.257V8.3929H130.715V7.69318H134.66V8.3929H134.67Z" fill="black"/>
<path d="M136.475 7.69318L137.915 11.5062L139.345 7.69318H140.46V12.6724H139.598V11.0295L139.679 8.8391L138.209 12.6724H137.59L136.12 8.8391L136.201 11.0295V12.6724H135.339V7.69318H136.475Z" fill="black"/>
</svg>
