<svg width="22" height="21" viewBox="0 0 22 21" fill="none" xmlns="http://www.w3.org/2000/svg">
<path d="M11.0695 12.864C12.9009 12.864 14.3855 11.3868 14.3855 9.56455C14.3855 7.74233 12.9009 6.26514 11.0695 6.26514C9.2381 6.26514 7.75348 7.74233 7.75348 9.56455C7.75348 11.3868 9.2381 12.864 11.0695 12.864Z" stroke="#F7941D" stroke-miterlimit="10"/>
<path d="M5.04034 19.6628V18.7629C5.04034 15.4635 7.75344 12.764 11.0694 12.764C14.3854 12.764 17.0985 15.4635 17.0985 18.7629V19.6628" stroke="#F7941D" stroke-miterlimit="10"/>
<path d="M18.1034 19.6626H4.03554C2.3273 19.6626 1.021 18.3629 1.021 16.6632V5.06523C1.021 3.36554 2.3273 2.06577 4.03554 2.06577H9.96415L11.0695 0.666016L12.1748 2.06577H18.1034C19.8117 2.06577 21.118 3.36554 21.118 5.06523V16.6632C21.118 18.3629 19.8117 19.6626 18.1034 19.6626Z" stroke="#1296B0" stroke-miterlimit="10" stroke-linecap="round" stroke-linejoin="round"/>
</svg>
