<svg width="22" height="21" viewBox="0 0 22 21" fill="none" xmlns="http://www.w3.org/2000/svg">
<path d="M11.0695 12.8708C12.9009 12.8708 14.3855 11.3936 14.3855 9.57139C14.3855 7.74917 12.9009 6.27197 11.0695 6.27197C9.2381 6.27197 7.75348 7.74917 7.75348 9.57139C7.75348 11.3936 9.2381 12.8708 11.0695 12.8708Z" stroke="#F7941D" stroke-miterlimit="10"/>
<path d="M5.04034 19.6696V18.7697C5.04034 15.4703 7.75344 12.7708 11.0694 12.7708C14.3854 12.7708 17.0985 15.4703 17.0985 18.7697V19.6696" stroke="#F7941D" stroke-miterlimit="10"/>
<path d="M18.1034 19.6695H4.03554C2.3273 19.6695 1.021 18.3697 1.021 16.67V5.07207C1.021 3.37237 2.3273 2.0726 4.03554 2.0726H9.96415L11.0695 0.672852L12.1748 2.0726H18.1034C19.8117 2.0726 21.118 3.37237 21.118 5.07207V16.67C21.118 18.3697 19.8117 19.6695 18.1034 19.6695Z" stroke="#1296B0" stroke-miterlimit="10" stroke-linecap="round" stroke-linejoin="round"/>
</svg>
